PathFileType        4      (X/Y/Z)      C:\Users\pc\Desktop\IMUTRC\Sujet_03\Sujet_03_velo_60.trc         
DataRate	CameraRate	NumFrames	NumMarkers	Units	OrigDataRate	OrigDataStartFrame	OrigNumFrames
60.0	60.0	4	64	mm	60.0	233	929
Frame#	Time	pHipOrigin			pRightASI			pLeftASI			pRightCSI			pLeftCSI			pRightIschialTub			pLeftIschialTub			pSacrum			pL5SpinalProcess			pL3SpinalProcess			pT12SpinalProcess			pIJ			pT4SpinalProcess			pT8SpinalProcess			pPX			pC7SpinalProcess			pTopOfHead			pRightAuricularis			pLeftAuricularis			pBackOfHead			pRightAcromion			pLeftAcromion			pRightArmLatEpicondyle			pRightArmMedEpicondyle			pLeftArmLatEpicondyle			pLeftArmMedEpicondyle			pRightUlnarStyloid			pRightRadialStyloid			pRightOlecranon			pLeftUlnarStyloid			pLeftRadialStyloid			pLeftOlecranon			pRightTopOfHand			pRightPinky			pRightBallHand			pLeftTopOfHand			pLeftPinky			pLeftBallHand			pRightGreaterTrochanter			pRightKneeLatEpicondyle			pRightKneeMedEpicondyle			pRightPatella			pLeftGreaterTrochanter			pLeftKneeLatEpicondyle			pLeftKneeMedEpicondyle			pLeftPatella			pRightTibialTub			pRightLatMalleolus			pRightMedMalleolus			pLeftTibialTub			pLeftLatMalleolus			pLeftMedMalleolus			pRightHeelFoot			pRightFirstMetatarsal			pRightFifthMetatarsal			pRightPivotFoot			pRightHeelCenter			pRightToe			pLeftHeelFoot			pLeftFirstMetatarsal			pLeftFifthMetatarsal			pLeftPivotFoot			pLeftHeelCenter			pLeftToe			
		X1	Y1	Z1	X2	Y2	Z2	X3	Y3	Z3	X4	Y4	Z4	X5	Y5	Z5	X6	Y6	Z6	X7	Y7	Z7	X8	Y8	Z8	X9	Y9	Z9	X10	Y10	Z10	X11	Y11	Z11	X12	Y12	Z12	X13	Y13	Z13	X14	Y14	Z14	X15	Y15	Z15	X16	Y16	Z16	X17	Y17	Z17	X18	Y18	Z18	X19	Y19	Z19	X20	Y20	Z20	X21	Y21	Z21	X22	Y22	Z22	X23	Y23	Z23	X24	Y24	Z24	X25	Y25	Z25	X26	Y26	Z26	X27	Y27	Z27	X28	Y28	Z28	X29	Y29	Z29	X30	Y30	Z30	X31	Y31	Z31	X32	Y32	Z32	X33	Y33	Z33	X34	Y34	Z34	X35	Y35	Z35	X36	Y36	Z36	X37	Y37	Z37	X38	Y38	Z38	X39	Y39	Z39	X40	Y40	Z40	X41	Y41	Z41	X42	Y42	Z42	X43	Y43	Z43	X44	Y44	Z44	X45	Y45	Z45	X46	Y46	Z46	X47	Y47	Z47	X48	Y48	Z48	X49	Y49	Z49	X50	Y50	Z50	X51	Y51	Z51	X52	Y52	Z52	X53	Y53	Z53	X54	Y54	Z54	X55	Y55	Z55	X56	Y56	Z56	X57	Y57	Z57	X58	Y58	Z58	X59	Y59	Z59	X60	Y60	Z60	X61	Y61	Z61	X62	Y62	Z62	X63	Y63	Z63	X64	Y64	Z64	
233	3.867	0.0	1250.01021	7.654105012890054E-14	93.33813000000002	1335.85106	132.45180000000008	80.08712999999999	1334.3981	-141.69261999999992	61.43113000000001	1411.40496	109.61127000000009	50.50487999999999	1410.2426	-116.70171999999991	-64.27893	1205.0847	60.03629000000008	-69.74206	1204.50352	-53.12019999999992	-62.18667	1284.70689	2.8478000000000825	-4.82383	1376.35958	8.457309210459633E-14	59.80382	1477.65992	-3.370869999999913	120.42129	1569.48697	-6.393019999999911	388.05645	1614.00565	-24.293479999999924	263.21816	1714.60857	-14.064649999999912	189.93088	1653.58427	-9.88012999999991	291.52182	1526.47936	-18.946589999999926	309.30604	1750.87445	-16.273149999999912	566.59613	1837.41272	-52.07406999999992	491.21658	1786.32666	33.41807000000008	467.32993	1787.31467	-109.03008999999992	451.57985	1836.076	-32.83688999999991	319.593	1711.64454	199.52041000000008	307.03942	1692.233	-233.6940199999999	421.47452	1435.17538	152.79323000000005	402.70229	1435.52409	95.13980000000005	399.21518	1416.51938	-211.02784999999994	385.49924	1413.26475	-152.09580999999994	509.87259	1197.06436	110.30869000000004	558.11084	1218.16134	121.40930000000004	385.61548	1430.64215	121.23495000000005	492.43707	1177.76906	-199.05546999999996	540.55909	1200.60958	-206.84332999999995	365.79711	1409.48706	-179.76015999999996	651.8558	1063.79891	215.27050000000003	573.91905	1091.87009	159.24437000000003	550.03239	1160.15919	119.20081000000005	662.84017	1081.00195	-309.36416	577.81298	1088.20863	-257.17385	540.21038	1145.62959	-210.96973999999997	41.20593000000001	1235.07379	161.8015800000001	401.36556	1045.72409	92.29199000000004	394.27512	1047.93259	12.611690000000038	415.48833	1087.91804	49.34251000000003	6.160549999999989	1228.97136	-168.95013999999992	251.36201	897.8128	-193.59233999999998	262.92757	892.7565	-114.60944999999995	291.40558	924.31478	-154.53677999999996	437.68955	1001.96095	43.356310000000036	248.39797	626.51618	83.34176000000002	240.78447	629.18963	16.970570000000023	284.08266	839.52006	-154.76925999999997	-4.242640000000006	536.25833	-97.23205999999998	13.192869999999997	539.33861	-32.720649999999964	179.81828	558.34332	30.105320000000024	341.0968	520.33389	-19.35341999999999	339.93443	498.48138	59.33887000000001	362.65872	503.01462	17.377400000000012	218.58324	547.5333	27.664350000000017	442.39714	478.72113	11.798030000000004	-74.85648	496.21477	-27.548109999999966	68.23098	400.26131	-12.611689999999978	41.72899999999999	382.8258	-87.81687999999997	73.22916	377.36267	-52.19030999999998	-43.18196	471.92128	-33.01123999999997	137.79869	325.46295	-62.884089999999986	
234	3.883	0.0	1250.01021	7.654105012890054E-14	93.39624000000002	1335.79295	132.45180000000008	79.91277999999998	1334.57246	-141.75073999999992	61.43113000000001	1411.34685	109.66939000000009	50.33051999999999	1410.30071	-116.64359999999992	-64.22081	1204.96846	60.09441000000008	-69.74206	1204.4454	-53.06207999999992	-62.24479	1284.70689	2.9059200000000827	-4.94006	1376.35958	0.05812000000008458	59.62946	1477.71804	-3.370869999999913	120.1307	1569.60321	-6.5092599999999115	387.70774	1614.41248	-24.816549999999925	262.75322	1714.89917	-14.47147999999991	189.58217	1653.75863	-10.17071999999991	291.28934	1526.76996	-19.237189999999924	308.78298	1751.16504	-16.79620999999991	566.01495	1837.9939	-52.77148999999992	490.6354	1786.90784	32.72065000000008	466.74874	1787.77962	-109.66938999999992	450.99866	1836.54094	-33.53430999999991	319.36052	1711.58642	199.1135800000001	306.45824	1692.40735	-234.10084999999992	421.12581	1435.2335	152.44452000000007	402.41169	1435.52409	94.79108000000005	398.69212	1416.69374	-211.43467999999993	385.0343	1413.43911	-152.44451999999995	509.52388	1197.06436	110.42493000000005	557.82025	1218.16134	121.52554000000005	385.32489	1430.64215	120.88624000000006	492.03024	1177.94341	-198.88110999999995	540.15226	1200.78394	-206.66896999999994	365.27405	1409.66141	-180.16698999999994	651.44897	1063.85703	215.73544000000004	573.51222	1091.87009	159.59308000000001	549.68368	1160.15919	119.37516000000004	662.49146	1081.00195	-308.95733	577.40615	1088.32486	-256.82514	539.80355	1145.74583	-210.73725999999996	40.624750000000006	1233.56271	161.8015800000001	393.63582	1031.19449	92.17576000000003	386.71973	1033.86794	12.553570000000041	409.32778	1072.98161	49.34251000000003	6.857969999999989	1230.42431	-169.1826199999999	260.37036	905.89126	-197.66062999999997	271.70345	899.96318	-118.67773999999996	299.54215	932.80007	-158.02388999999997	431.8196	988.47748	43.58879000000004	252.17567	608.20889	82.52811000000003	244.96899	610.64986	16.098790000000026	290.99875	846.55239	-158.08200999999997	-6.451140000000006	553.05455	-96.65086999999997	11.158729999999998	556.30917	-32.25569999999996	184.9327	538.81554	29.52414000000002	346.7924	503.30521	-19.87648999999999	346.03686	481.68517	58.873920000000005	368.64491	486.39276	16.912450000000007	223.87202	528.64482	27.083170000000017	448.79016	463.436	11.333080000000002	-77.70428	514.92889	-26.676339999999964	63.46528	416.41822	-10.984369999999979	36.67269999999999	398.92459	-86.13144999999997	68.05663	393.11275	-50.38863999999999	-46.55283	489.9961	-32.02322999999997	131.63814	339.93443	-60.675589999999985	
235	3.9	0.0	1250.01021	7.654105012890054E-14	93.51248000000001	1335.73483	132.39368000000007	79.73841999999999	1334.63058	-141.75073999999992	61.54737000000001	1411.28873	109.72751000000008	50.156169999999996	1410.41695	-116.58547999999992	-64.10458	1204.91034	60.09441000000008	-69.80018	1204.50352	-53.06207999999992	-62.24479	1284.70689	2.9640400000000824	-4.94006	1376.35958	0.17436000000008456	59.51323	1477.71804	-3.370869999999913	119.95635	1569.66132	-6.625499999999911	387.47527	1614.81931	-25.397729999999925	262.34639	1715.13164	-14.936419999999911	189.29158	1653.87486	-10.46130999999991	291.11499	1527.06055	-19.585899999999924	308.37615	1751.45563	-17.377399999999913	565.43376	1838.51697	-53.527029999999925	490.17045	1787.43091	32.023230000000076	466.2838	1788.18645	-110.36680999999992	450.4756	1837.00589	-34.289849999999916	319.24429	1711.64454	198.64864000000009	305.93518	1692.52359	-234.5657999999999	420.89334	1435.2335	152.15393000000006	402.17922	1435.52409	94.50049000000006	398.16905	1416.80997	-211.72526999999994	384.51123	1413.61346	-152.73510999999993	509.17517	1197.00624	110.65740000000004	557.47154	1218.10322	121.81613000000004	385.09241	1430.64215	120.53753000000006	491.56529	1178.05965	-198.59051999999994	539.68732	1200.90018	-206.37837999999994	364.75098	1409.77765	-180.45757999999995	650.9259	1063.91514	216.31663000000003	573.04727	1091.87009	160.05803000000003	549.27685	1160.04295	119.72387000000005	662.08463	1081.00195	-308.37615	576.99932	1088.32486	-256.30207	539.33861	1145.86207	-210.33042999999998	39.927330000000005	1231.81916	161.74346000000008	384.68559	1015.79312	91.94328000000003	377.94385	1018.93151	12.26298000000004	402.1211	1056.99906	49.22627000000004	7.49726999999999	1231.93539	-169.4150899999999	269.55307	914.60901	-201.49643999999998	280.82803	907.86728	-122.62978999999996	307.9112	941.98277	-161.39474999999996	424.43856	974.18036	43.53067000000003	254.20981	589.55289	81.36574000000003	247.29373	591.87763	14.87831000000002	298.32167	854.45649	-161.22039999999998	-7.090440000000006	570.02511	-96.41839999999998	10.635659999999998	573.51222	-32.02322999999996	188.18733	518.99717	28.59425000000002	350.62821	485.69534	-20.515789999999992	350.16327	464.42401	58.29274000000001	372.7132	469.30595	16.331270000000007	227.24288	509.40764	26.269510000000018	453.14904	447.56968	10.984369999999998	-79.041	533.52677	-26.327629999999964	60.50124	432.80761	-9.763889999999977	33.476189999999995	415.25586	-84.79471999999997	64.74388	409.21154	-49.05191999999998	-48.29638	508.0128	-31.442049999999963	127.45362	354.87085	-58.932039999999986	
236	3.917	0.0	1250.01021	7.654105012890054E-14	93.74495000000002	1335.56047	132.33556000000007	79.56406999999999	1334.74681	-141.80885999999992	61.721720000000005	1411.17249	109.78563000000008	50.09804999999999	1410.53319	-116.52735999999992	-64.04646	1204.91034	60.15253000000008	-69.91642	1204.56163	-53.003969999999924	-62.18667	1284.70689	3.0802700000000827	-4.94006	1376.35958	0.29059000000008456	59.51323	1477.71804	-3.370869999999913	119.84011	1569.71944	-6.741729999999911	387.30091	1615.16802	-26.153269999999925	262.11391	1715.306	-15.459489999999912	189.0591	1653.9911	-10.75189999999991	291.05687	1527.29302	-20.050839999999926	308.02744	1751.74622	-18.07481999999991	565.02693	1838.98192	-54.340689999999924	489.76362	1787.89586	31.20957000000008	465.99321	1788.47704	-111.18046999999991	450.01065	1837.3546	-35.10349999999991	319.3024	1711.70266	198.0674500000001	305.52835	1692.69794	-235.14697999999993	420.7771	1435.2335	151.92146000000005	402.1211	1435.46597	94.26802000000006	397.7041	1416.86809	-211.84150999999994	383.87193	1413.7297	-152.90946999999994	508.88457	1196.83189	111.00611000000005	557.12283	1217.92886	122.22296000000004	384.97618	1430.64215	120.24694000000005	491.04223	1178.11777	-198.12556999999995	539.16425	1200.95829	-205.91343999999995	364.22791	1409.89389	-180.63193999999993	650.40284	1063.91514	217.13028000000003	572.58232	1091.75385	160.75545000000002	548.92814	1159.8686	120.24694000000004	661.67781	1080.88571	-307.62061	576.53437	1088.32486	-255.66276999999997	538.81554	1145.92018	-209.74924999999996	39.055550000000004	1229.78501	161.74346000000008	374.16616	999.22938	91.30398000000002	367.77314	1003.12331	11.68180000000004	393.46146	1039.91225	48.877560000000045	8.020339999999988	1233.38835	-169.5894499999999	278.96824	924.02419	-205.33224999999996	290.30133	916.58504	-126.52371999999995	316.4546	951.92102	-164.82373999999996	415.43021	958.95334	42.83325000000003	254.32605	570.25759	79.56407000000002	247.40996	572.58232	13.076640000000019	306.10953	863.29048	-164.30066999999997	-5.986190000000006	586.87944	-96.65086999999995	11.739909999999998	590.65714	-32.313819999999964	189.46593	498.65574	27.199400000000022	352.42988	467.38805	-21.329449999999994	352.13929	446.81414	57.711560000000006	374.68922	451.63796	15.691960000000005	228.63772	489.58927	24.990910000000014	455.47378	431.06406	10.693779999999999	-78.57606	551.77594	-26.56009999999996	59.62946	449.31323	-9.066469999999978	32.546299999999995	431.64524	-84.03917999999997	63.63963	425.42657	-48.18013999999998	-48.12202	525.85514	-31.442049999999963	125.65195	370.21411	-57.537199999999984	
